<?xml version="1.0" standalone="no"?>
<!DOCTYPE svg PUBLIC "-//W3C//DTD SVG 20010904//EN"
 "http://www.w3.org/TR/2001/REC-SVG-20010904/DTD/svg10.dtd">
<svg version="1.0" xmlns="http://www.w3.org/2000/svg"
 width="512.000000pt" height="512.000000pt" viewBox="0 0 512.000000 512.000000"
 preserveAspectRatio="xMidYMid meet">
<metadata>
Created by potrace 1.14, written by Peter Selinger 2001-2017
</metadata>
<g transform="translate(0.000000,512.000000) scale(0.100000,-0.100000)"
fill="#000000" stroke="none">
<path d="M1083 4865 c-132 -36 -240 -120 -302 -235 -63 -118 -61 -66 -61
-1279 0 -608 -2 -1106 -3 -1108 -2 -2 -27 -5 -55 -8 -171 -17 -324 -139 -394
-314 -23 -55 -23 -62 -26 -586 l-3 -531 80 -162 81 -163 0 -159 0 -160 400 0
400 0 0 40 0 40 1360 0 1360 0 0 -40 0 -40 400 0 400 0 0 160 0 159 80 162 80
162 -1 511 c0 402 -4 522 -15 563 -50 191 -212 334 -404 358 -30 4 -56 8 -57
9 -1 1 -4 508 -6 1127 -2 618 -5 1131 -8 1139 -3 8 -10 28 -14 45 -14 49 -70
137 -122 188 -30 30 -80 64 -133 90 l-85 42 -1450 2 c-1224 1 -1458 0 -1502
-12z"/>
</g>
</svg>
